<svg width="24" height="16" viewBox="0 0 24 16" fill="none" xmlns="http://www.w3.org/2000/svg">
<path d="M3 15H1V14C1 12.1362 2.27477 10.57 4 10.126M6 6.8293C4.83481 6.41747 4 5.30623 4 4.00001C4 2.69379 4.83481 1.58255 6 1.17072M21 15H23V14C23 12.1362 21.7252 10.57 20 10.126M18 1.17072C19.1652 1.58255 20 2.69379 20 4.00001C20 5.30623 19.1652 6.41747 18 6.8293M10 10H14C16.2091 10 18 11.7909 18 14V15H6V14C6 11.7909 7.79086 10 10 10ZM15 4C15 5.65685 13.6569 7 12 7C10.3431 7 9 5.65685 9 4C9 2.34315 10.3431 1 12 1C13.6569 1 15 2.34315 15 4Z" stroke="#001A72" stroke-width="1.5" stroke-linecap="round" stroke-linejoin="round"/>
</svg>
